<svg width="55" height="64" viewBox="0 0 55 64" fill="none" xmlns="http://www.w3.org/2000/svg">
<g clip-path="url(#clip0_5_210)">
<path d="M43.9974 56.0021V63.0024V64H42.9998H1.00383H0.00621033V63.0024V1.00325V0.00563049H1.00383H31.0058H31.4229L31.7159 0.298717L43.7156 12.2984L44.0087 12.5915V13.0085V28.0912C45.2656 28.3054 46.3928 28.9029 47.2552 29.7652C48.3373 30.8474 49.0137 32.3523 49.0137 34.0093C49.0137 34.9731 48.7826 35.8918 48.3712 36.7091C48.0273 37.3911 47.5539 37.9998 46.9846 38.5071V48.0099H51.0146C52.1137 48.0099 53.1169 48.4608 53.8384 49.1822C54.5598 49.9036 55.0107 50.9069 55.0107 52.006V55.0045V56.0021H54.0131H44.0087H43.9974ZM41.9965 28.0856V14.0005H30.9945C30.4421 14.0005 29.9969 13.5496 29.9969 13.0029V12.9747V2.00087H1.99582V61.9991H41.9965V55.9965H31.9978H31.0001V54.9989V52.0003C31.0001 50.9013 31.451 49.898 32.1725 49.1766C32.8939 48.4551 33.8972 48.0042 34.9963 48.0042H39.0262V38.5014C38.4569 37.9998 37.9835 37.3911 37.6397 36.7035C37.2282 35.8862 36.9971 34.9731 36.9971 34.0037C36.9971 32.3466 37.6679 30.8474 38.7557 29.7596C39.618 28.8972 40.7396 28.2998 41.9965 28.0856ZM41.0327 48.0042H44.9725V38.028V37.5264L45.3783 37.2276C45.8799 36.8557 46.297 36.3653 46.5788 35.8073C46.8494 35.2719 47.0015 34.6575 47.0015 34.0037C47.0015 32.899 46.5506 31.9014 45.8292 31.1743C45.1078 30.4528 44.1045 30.0019 42.9998 30.0019C41.8951 30.0019 40.8974 30.4528 40.1704 31.1743C39.4489 31.8957 38.998 32.899 38.998 34.0037C38.998 34.6575 39.1502 35.2662 39.4207 35.8073C39.7026 36.3653 40.1196 36.8557 40.6213 37.2276L41.0271 37.5264V38.028V48.0042H41.0327ZM51.0033 50.0051H35.0019C34.4552 50.0051 33.9535 50.2306 33.5928 50.5913C33.2321 50.952 33.0067 51.4536 33.0067 52.0003V54.0012H53.0042V52.0003C53.0042 51.4536 52.7787 50.952 52.418 50.5913C52.0573 50.2306 51.5557 50.0051 51.0089 50.0051H51.0033ZM21.999 58.003H38.0004V60.0039H21.999V58.003ZM5.99758 29.0043H26.9984V31.0052H5.99758V29.0043ZM5.99758 25.0025H38.0004V27.0034H5.99758V25.0025ZM5.99758 21.0008H38.0004V23.0017H5.99758V21.0008ZM5.99758 16.999H38.0004V18.9999H5.99758V16.999ZM40.5818 11.9996L31.9978 3.41558V11.9996H40.5818Z" fill="white"/>
</g>
<defs>
<clipPath id="clip0_5_210">
<rect width="55" height="64" fill="white"/>
</clipPath>
</defs>
</svg>
