<svg width="64" height="64" viewBox="0 0 64 64" fill="none" xmlns="http://www.w3.org/2000/svg">
<path d="M12.5 13.5C8.915 13.5 6 10.585 6 7C6 3.415 8.915 0.5 12.5 0.5C16.085 0.5 19 3.415 19 7C19 10.585 16.085 13.5 12.5 13.5ZM12.5 3.5C10.57 3.5 9 5.07 9 7C9 8.93 10.57 10.5 12.5 10.5C14.43 10.5 16 8.93 16 7C16 5.07 14.43 3.5 12.5 3.5Z" fill="white"/>
<path d="M53 38.5C50.245 38.5 48 36.255 48 33.5C48 30.745 50.245 28.5 53 28.5C55.755 28.5 58 30.745 58 33.5C58 36.255 55.755 38.5 53 38.5ZM53 31.5C51.895 31.5 51 32.395 51 33.5C51 34.605 51.895 35.5 53 35.5C54.105 35.5 55 34.605 55 33.5C55 32.395 54.105 31.5 53 31.5Z" fill="white"/>
<path d="M32 13.5C28.415 13.5 25.5 10.585 25.5 7C25.5 3.415 28.415 0.5 32 0.5C35.585 0.5 38.5 3.415 38.5 7C38.5 10.585 35.585 13.5 32 13.5ZM32 3.5C30.07 3.5 28.5 5.07 28.5 7C28.5 8.93 30.07 10.5 32 10.5C33.93 10.5 35.5 8.93 35.5 7C35.5 5.07 33.93 3.5 32 3.5Z" fill="white"/>
<path d="M62.975 53.73L62.095 48.895C61.305 44.56 57.835 41.285 53.46 40.755C48.105 40.105 43.975 35.905 43.42 30.545L42.875 25.33C42.29 19.725 37.605 15.5 31.97 15.5C29.64 15.5 27.415 16.22 25.535 17.585C24.865 18.07 24.715 19.01 25.2 19.68C25.685 20.35 26.625 20.5 27.295 20.015C28.66 19.025 30.275 18.5 31.97 18.5C36.065 18.5 39.47 21.57 39.895 25.64L40.44 30.855C40.89 35.165 43.17 38.87 46.505 41.21V49C46.505 50.825 47.265 52.48 48.485 53.66L49.01 62.095C49.06 62.89 49.72 63.5 50.505 63.5C50.535 63.5 50.57 63.5 50.6 63.495C51.425 63.445 52.055 62.73 52.005 61.905L51.595 55.34C52.05 55.44 52.52 55.5 53.01 55.5H54.415L54.015 61.905C53.965 62.73 54.59 63.445 55.42 63.495C55.45 63.495 55.485 63.5 55.515 63.5C56.3 63.5 56.96 62.89 57.01 62.095L57.51 54.095C57.535 53.68 57.39 53.275 57.105 52.975C56.82 52.675 56.415 52.5 56 52.5H53C51.07 52.5 49.5 50.93 49.5 49V42.83C50.635 43.275 51.84 43.585 53.1 43.735C56.165 44.105 58.595 46.395 59.145 49.43L60.025 54.265C60.155 54.99 60.79 55.495 61.5 55.495C61.59 55.495 61.68 55.485 61.77 55.47C62.585 55.33 63.125 54.545 62.975 53.73Z" fill="white"/>
<path d="M38.5 37.5C37.67 37.5 37 38.17 37 39V47.5H27C27 46.67 26.33 46 25.5 46C24.67 46 24 46.67 24 47.5C24 49.155 25.345 50.5 27 50.5H27.11L28.005 62.115C28.065 62.9 28.72 63.5 29.5 63.5C29.54 63.5 29.58 63.5 29.615 63.495C30.44 63.43 31.06 62.71 30.995 61.885L30.12 50.5H33.88L33.005 61.885C32.94 62.71 33.56 63.43 34.385 63.495C34.425 63.5 34.465 63.5 34.5 63.5C35.275 63.5 35.935 62.9 35.995 62.115L36.89 50.5H37C38.655 50.5 40 49.155 40 47.5V39C40 38.17 39.33 37.5 38.5 37.5Z" fill="white"/>
<path d="M23.875 25.33C23.29 19.725 18.605 15.5 12.97 15.5C6.92 15.5 2 20.42 2 26.47V41C2 42.955 3.255 44.625 5 45.245V59C5 61.48 7.02 63.5 9.5 63.5C10.655 63.5 11.705 63.06 12.5 62.345C13.295 63.06 14.345 63.5 15.5 63.5C17.98 63.5 20 61.48 20 59V46C20 45.17 19.33 44.5 18.5 44.5C17.67 44.5 17 45.17 17 46V59C17 59.825 16.325 60.5 15.5 60.5C14.675 60.5 14 59.825 14 59V41C14 40.17 13.33 39.5 12.5 39.5C11.67 39.5 11 40.17 11 41V59C11 59.825 10.325 60.5 9.5 60.5C8.675 60.5 8 59.825 8 59V44C8 43.17 7.33 42.5 6.5 42.5C5.675 42.5 5 41.825 5 41V26.47C5 22.075 8.575 18.5 12.97 18.5C17.04 18.5 20.43 21.535 20.885 25.57V41C20.885 41.83 21.555 42.5 22.385 42.5C23.215 42.5 23.885 41.83 23.885 41V25.485C23.885 25.435 23.88 25.385 23.875 25.33Z" fill="white"/>
</svg>
