<svg width="62" height="66" viewBox="0 0 62 66" fill="none" xmlns="http://www.w3.org/2000/svg">
<path d="M51.5759 7.86017L51.5753 8.05734" stroke="white" stroke-width="2" stroke-miterlimit="10" stroke-linecap="round" stroke-linejoin="round"/>
<path d="M51.5625 12.5991L51.5618 12.7963" stroke="white" stroke-width="2" stroke-miterlimit="10" stroke-linecap="round" stroke-linejoin="round"/>
<path d="M54.037 10.3353L53.8397 10.3347" stroke="white" stroke-width="2" stroke-miterlimit="10" stroke-linecap="round" stroke-linejoin="round"/>
<path d="M49.2981 10.3218L49.1008 10.3212" stroke="white" stroke-width="2" stroke-miterlimit="10" stroke-linecap="round" stroke-linejoin="round"/>
<path d="M57.9802 41.1083L57.9797 41.3054" stroke="white" stroke-width="2" stroke-miterlimit="10" stroke-linecap="round" stroke-linejoin="round"/>
<path d="M57.9668 45.8473L57.9662 46.0445" stroke="white" stroke-width="2" stroke-miterlimit="10" stroke-linecap="round" stroke-linejoin="round"/>
<path d="M60.4414 43.5833L60.2441 43.5828" stroke="white" stroke-width="2" stroke-miterlimit="10" stroke-linecap="round" stroke-linejoin="round"/>
<path d="M55.7024 43.5699L55.5051 43.5693" stroke="white" stroke-width="2" stroke-miterlimit="10" stroke-linecap="round" stroke-linejoin="round"/>
<path d="M3.47509 38.1106L3.47455 38.3078" stroke="white" stroke-width="2" stroke-miterlimit="10" stroke-linecap="round" stroke-linejoin="round"/>
<path d="M3.46168 42.8495L3.461 43.0467" stroke="white" stroke-width="2" stroke-miterlimit="10" stroke-linecap="round" stroke-linejoin="round"/>
<path d="M5.93623 40.5856L5.73892 40.5851" stroke="white" stroke-width="2" stroke-miterlimit="10" stroke-linecap="round" stroke-linejoin="round"/>
<path d="M1.19731 40.5721L1 40.5716" stroke="white" stroke-width="2" stroke-miterlimit="10" stroke-linecap="round" stroke-linejoin="round"/>
<path d="M11.5146 55.8247L11.514 56.0219" stroke="white" stroke-width="2" stroke-miterlimit="10" stroke-linecap="round" stroke-linejoin="round"/>
<path d="M11.5012 60.5637L11.5005 60.7608" stroke="white" stroke-width="2" stroke-miterlimit="10" stroke-linecap="round" stroke-linejoin="round"/>
<path d="M13.9758 58.2998L13.7784 58.2993" stroke="white" stroke-width="2" stroke-miterlimit="10" stroke-linecap="round" stroke-linejoin="round"/>
<path d="M9.2368 58.2863L9.03949 58.2858" stroke="white" stroke-width="2" stroke-miterlimit="10" stroke-linecap="round" stroke-linejoin="round"/>
<path d="M20.0922 40.9318L20.5616 43.0481C20.9152 44.6423 22.1603 45.8874 23.7545 46.241L25.8708 46.7104L23.7545 47.1798C22.1603 47.5334 20.9152 48.7785 20.5616 50.3727L20.0922 52.489L19.6228 50.3727C19.2692 48.7785 18.0241 47.5334 16.4299 47.1798L14.3136 46.7104L16.4299 46.241C18.0241 45.8874 19.2692 44.6423 19.6228 43.0481L20.0922 40.9318Z" stroke="white" stroke-width="2" stroke-miterlimit="10" stroke-linecap="round" stroke-linejoin="round"/>
<path d="M23.933 35.7964L15.2776 9.39796C14.7445 7.62191 15.7523 5.74993 17.5284 5.21687C19.3044 4.68381 21.1764 5.69161 21.7095 7.46766L29.6377 31.7802" stroke="white" stroke-width="2" stroke-miterlimit="10" stroke-linecap="round" stroke-linejoin="round"/>
<path d="M36.0696 29.8499L28.1415 5.53731C27.6085 3.76126 28.6163 1.88928 30.3923 1.35622C32.1684 0.823156 34.0403 1.83096 34.5734 3.60701L42.5016 27.9196" stroke="white" stroke-width="2" stroke-miterlimit="10" stroke-linecap="round" stroke-linejoin="round"/>
<path d="M42.5015 27.9198L35.6331 7.13832C35.1001 5.36227 36.1079 3.49029 37.8839 2.95723C39.66 2.42417 41.532 3.43197 42.065 5.20802L51.2997 33.5371C52.0166 35.9259 52.255 38.4329 52.0013 40.9141C51.7476 43.3953 51.986 45.9021 52.7029 48.2911L57.7629 65" stroke="white" stroke-width="2" stroke-miterlimit="10" stroke-linecap="round" stroke-linejoin="round"/>
<path d="M29.6377 31.7802L21.0662 5.32368C20.5331 3.54763 21.5409 1.67565 23.317 1.14259C25.093 0.609533 26.965 1.61733 27.4981 3.39338L36.0697 29.8499" stroke="white" stroke-width="2" stroke-miterlimit="10" stroke-linecap="round" stroke-linejoin="round"/>
<path d="M29.3235 49.2426C30.3358 49.6723 31.1043 50.5304 31.4204 51.5838L35.4253 64.9289" stroke="white" stroke-width="2" stroke-miterlimit="10" stroke-linecap="round" stroke-linejoin="round"/>
<path d="M41.8678 41.9619C41.8678 41.9619 38.1842 32.8943 24.3116 37.0575L18.7243 34.4726L16.6633 30.1966C15.2419 27.7929 12.1045 27.0574 9.76293 28.579L9.2142 28.8916L12.7215 36.6369C13.0223 37.2174 13.4092 37.7491 13.8688 38.2141L16.2094 40.5662" stroke="white" stroke-width="2" stroke-miterlimit="10" stroke-linecap="round" stroke-linejoin="round"/>
</svg>
