<?xml version="1.0" encoding="utf-8"?><svg viewBox="0 0 59 68" xmlns="http://www.w3.org/2000/svg" xmlns:xlink="http://www.w3.org/1999/xlink"><style>:root>svg{display:none}:root>svg:target{display:block}</style><svg viewBox="0 0 22 16" id="arrow-left" xmlns="http://www.w3.org/2000/svg"><path d="M.293 7.293a1 1 0 000 1.414l6.364 6.364a1 1 0 001.414-1.414L2.414 8l5.657-5.657A1 1 0 006.657.93L.293 7.293zM22 7H1v2h21V7z"/></svg><svg viewBox="0 0 22 16" id="arrow-right" xmlns="http://www.w3.org/2000/svg"><path d="M21.707 8.707a1 1 0 000-1.414L15.343.929a1 1 0 10-1.414 1.414L19.586 8l-5.657 5.657a1 1 0 001.414 1.414l6.364-6.364zM0 9h21V7H0v2z"/></svg><svg viewBox="0 0 59 68" id="play" xmlns="http://www.w3.org/2000/svg"><path d="M56.5 29.571c3.333 1.925 3.333 6.736 0 8.66L7.75 66.377c-3.333 1.925-7.5-.48-7.5-4.33V5.756c0-3.85 4.167-6.255 7.5-4.33L56.5 29.57z"/></svg></svg>