<svg width="50" height="50" viewBox="0 0 50 50" fill="none" xmlns="http://www.w3.org/2000/svg">
<path d="M38.25 37.225L45.175 44.15C45.6406 44.6184 45.902 45.252 45.902 45.9125C45.902 46.573 45.6406 47.2066 45.175 47.675C44.7066 48.1406 44.073 48.402 43.4125 48.402C42.752 48.402 42.1184 48.1406 41.65 47.675L35.175 41.225C33.0381 43.2027 30.3709 44.5146 27.5 45V22.6C27.5 21.937 27.2366 21.3011 26.7678 20.8322C26.2989 20.3634 25.663 20.1 25 20.1C24.337 20.1 23.7011 20.3634 23.2322 20.8322C22.7634 21.3011 22.5 21.937 22.5 22.6V45C19.6286 44.516 16.9611 43.2039 14.825 41.225L8.35 47.675C7.88159 48.1406 7.24796 48.402 6.5875 48.402C5.92704 48.402 5.29341 48.1406 4.825 47.675C4.35937 47.2066 4.09802 46.573 4.09802 45.9125C4.09802 45.252 4.35937 44.6184 4.825 44.15L11.75 37.225C10.9632 35.7497 10.4307 34.1523 10.175 32.5H2.5C1.83696 32.5 1.20107 32.2366 0.732233 31.7678C0.263392 31.2989 0 30.663 0 30C0 29.337 0.263392 28.7011 0.732233 28.2322C1.20107 27.7634 1.83696 27.5 2.5 27.5H10V21.025L2.325 13.35C1.85937 12.8816 1.59802 12.248 1.59802 11.5875C1.59802 10.927 1.85937 10.2934 2.325 9.825C2.79341 9.35937 3.42704 9.09802 4.0875 9.09802C4.74796 9.09802 5.38159 9.35937 5.85 9.825L11.1 15.075H38.9L44.15 9.825C44.6184 9.35937 45.252 9.09802 45.9125 9.09802C46.573 9.09802 47.2066 9.35937 47.675 9.825C48.1406 10.2934 48.402 10.927 48.402 11.5875C48.402 12.248 48.1406 12.8816 47.675 13.35L40 21.025V27.5H47.5C48.163 27.5 48.7989 27.7634 49.2678 28.2322C49.7366 28.7011 50 29.337 50 30C50 30.663 49.7366 31.2989 49.2678 31.7678C48.7989 32.2366 48.163 32.5 47.5 32.5H39.825C39.575 34.175 39.025 35.775 38.25 37.225ZM37.5 12.5H12.5C12.5 9.18479 13.817 6.00537 16.1612 3.66116C18.5054 1.31696 21.6848 0 25 0C28.3152 0 31.4946 1.31696 33.8388 3.66116C36.183 6.00537 37.5 9.18479 37.5 12.5Z" fill="#E6383A"/>
</svg>
