<svg width="64" height="64" viewBox="0 0 64 64" fill="none" xmlns="http://www.w3.org/2000/svg">
<path d="M53.553 33.6102L47.2736 21.0195C47.2026 20.8803 47.1085 20.7507 46.9888 20.6422C46.8688 20.5341 46.7344 20.4547 46.5942 20.4045L39.231 17.7581C38.7181 17.5738 38.1686 17.4749 37.5968 17.48C37.0256 17.4861 36.4787 17.5958 35.9683 17.7901L30.3814 19.9213C29.9882 20.0717 29.5978 20.2445 29.2128 20.4413C29.0842 20.5078 28.9578 20.5798 28.832 20.6506C28.4102 20.4221 27.9699 20.2208 27.5104 20.0496C26.0448 19.5018 24.544 19.3168 23.0915 19.441L19.3328 19.7635C19.1693 19.7776 19.0042 19.8282 18.8499 19.9187C18.6957 20.0096 18.5683 20.1322 18.4682 20.2739L10.0048 32.3222C9.83041 32.5696 9.73729 32.8845 9.76577 33.2176C9.79361 33.5507 9.93697 33.8429 10.1488 34.0528L13.8301 37.7011C13.6282 38.0707 13.5002 38.4858 13.4707 38.9299C13.4176 39.728 13.6797 40.4986 14.2064 41.0998C14.7338 41.7008 15.463 42.0608 16.2618 42.113C16.3043 42.1158 16.3475 42.1158 16.3907 42.1174C16.0634 43.1757 16.3312 44.3776 17.184 45.1846C17.6944 45.6678 18.3488 45.9494 19.0442 45.9946C18.5962 47.105 18.8384 48.4291 19.7539 49.2954C20.3123 49.8246 21.0426 50.1155 21.8122 50.1155C22.6134 50.1155 23.361 49.8026 23.9254 49.2374C24.1354 50.5936 25.2621 51.6749 26.687 51.768C26.7526 51.7725 26.8198 51.7754 26.8854 51.7754C27.2496 51.7754 27.5984 51.7066 27.9229 51.5856C28.4528 51.9389 29.0845 52.1334 29.7568 52.1062C30.583 52.0717 31.3242 51.7072 31.8784 51.137L29.8538 49.1168C29.8586 49.0701 29.8672 49.0253 29.8691 48.977C29.8954 48.5802 29.841 48.1962 29.7229 47.8394L33.8666 51.9725C34.3894 52.1853 34.9584 52.2918 35.551 52.2678C36.737 52.2195 37.7933 51.6595 38.5414 50.793L38.9562 50.312C38.9946 50.2666 39.024 50.2154 39.0496 50.1603L32.6698 43.7981C32.5053 43.6352 32.4922 43.3642 32.6381 43.1936C32.7843 43.024 33.0378 43.0182 33.201 43.1811L40.7885 50.7475C41.2019 50.8925 41.6445 50.9632 42.1043 50.9443C43.1469 50.9018 44.0771 50.4093 44.7347 49.6461L45.7366 48.4864C45.9664 48.2189 46.1034 47.8579 46.0906 47.4656L39.4323 40.8275C39.2698 40.6643 39.255 40.3926 39.401 40.2234C39.5482 40.0534 39.801 40.0477 39.9638 40.2106L46.6534 46.881C46.928 46.9542 47.2163 46.9901 47.5126 46.9782C48.3674 46.9437 49.1277 46.5405 49.6659 45.9155L49.935 45.6038C50.4736 44.9802 50.791 44.1354 50.7587 43.2166C50.7261 42.2982 50.3517 41.4822 49.7712 40.903L47.9853 39.1226L48.4365 39.5718L53.2653 35.2115C53.4704 35.0272 53.6192 34.769 53.6736 34.4656C53.7277 34.1626 53.6787 33.8634 53.553 33.6102ZM16.3456 40.8221C15.8928 40.7926 15.4787 40.5885 15.1789 40.2467C14.8794 39.9059 14.7315 39.4685 14.7616 39.0147C14.8189 38.1242 15.5645 37.4269 16.4547 37.4269C16.4925 37.4269 16.5309 37.4278 16.5686 37.4301C17.0214 37.4602 17.4355 37.664 17.7354 38.0058C18.0349 38.3472 18.1827 38.7843 18.1536 39.2381C18.0915 40.1664 17.2848 40.8848 16.3456 40.8221ZM19.2406 44.7101C18.8045 44.7101 18.3898 44.5456 18.073 44.2458C17.4006 43.6102 17.3642 42.5392 17.9882 41.8621C18.0205 41.8285 18.6835 41.127 19.0016 40.7923L19.1686 40.6147C19.4931 40.2723 19.9315 40.0835 20.4032 40.0835C20.8397 40.0835 21.2547 40.249 21.5709 40.5494C21.9008 40.8611 22.0899 41.2826 22.1021 41.737C22.1146 42.1898 21.9494 42.6214 21.6378 42.9504L21.1648 43.4506C21.0637 43.5568 20.9552 43.6717 20.8442 43.7888C20.8266 43.8086 20.807 43.8285 20.7901 43.847C20.7075 43.9338 20.6346 44.0106 20.5779 44.0698C20.5456 44.1046 20.5133 44.1395 20.48 44.1734C20.4717 44.1821 20.4653 44.1894 20.4646 44.1904C20.1427 44.5258 19.7072 44.7101 19.2406 44.7101ZM23.0349 48.3024C22.712 48.6378 22.2778 48.8221 21.8115 48.8221C21.375 48.8221 20.9594 48.6566 20.6435 48.3565C19.9715 47.721 19.9347 46.6502 20.5568 45.9763C20.5715 45.9603 20.961 45.5482 21.4022 45.0826L21.7299 44.7363C22.3037 44.129 22.4918 43.9315 22.5552 43.8627C22.5626 43.856 22.5712 43.848 22.5773 43.841L22.5786 43.84C22.6339 43.7802 22.6662 43.7469 22.6672 43.7459C22.991 43.4035 23.4301 43.2144 23.9021 43.2144C24.3386 43.2144 24.7526 43.3795 25.0698 43.6797C25.3997 43.992 25.5878 44.4138 25.6003 44.8669C25.6128 45.3216 25.4477 45.753 25.1347 46.0835C25.1043 46.1155 23.1005 48.2326 23.0349 48.3024ZM26.7712 50.4784C25.8362 50.4163 25.1251 49.6054 25.1869 48.671C25.2454 47.7798 25.9882 47.0826 26.8797 47.0826C26.9174 47.0826 26.9558 47.0838 26.9936 47.0861C27.9283 47.1475 28.6394 47.9584 28.5786 48.8931C28.5171 49.8208 27.7117 50.5402 26.7712 50.4784ZM47.5472 38.6861L34.3203 25.4989L34.4694 25.1222C34.5466 24.9258 34.5366 24.6938 34.4237 24.4986C34.3104 24.304 34.121 24.1907 33.9226 24.1802L32.9395 24.1213L31.8656 24.0576L31.784 25.3306C31.783 25.3571 31.5702 28.2518 30.0941 30.8672C28.5808 33.551 26.5757 34.4765 26.2701 34.536C25.9286 34.6022 25.5706 34.6653 25.273 34.6653C25.0685 34.6653 24.911 34.6365 24.7763 34.5747L24.2742 34.3421C24.0637 34.2445 23.903 34.0653 23.8182 33.8368C23.7357 33.6163 23.7366 33.3754 23.8182 33.1555L28.849 22.1149L29.7043 21.5514L30.049 21.4202H30.0483L36.3709 19.0086C36.7683 18.8573 37.1846 18.7779 37.6074 18.7741L37.6426 18.7738C38.0528 18.7738 38.4592 18.8448 38.8483 18.985L46.2118 21.6314L52.4918 34.2218L47.5472 38.6861Z" fill="white"/>
<path d="M54.7037 12.9782L49.7328 15.4566C49.0179 15.8141 48.4381 16.4438 48.1642 17.2618C47.8906 18.08 47.9754 18.9315 48.3309 19.648L54.8394 32.696C55.1962 33.4106 55.8256 33.9914 56.6451 34.264C57.4624 34.5379 58.3139 34.4544 59.0301 34.0973L64 31.6176L54.7037 12.9782ZM59.0173 31.6253C58.3571 31.6253 57.8202 31.0899 57.8202 30.4288C57.8202 29.767 58.3571 29.2304 59.0173 29.2304C59.6787 29.2304 60.2157 29.767 60.2157 30.4288C60.2157 31.0899 59.6787 31.6253 59.0173 31.6253Z" fill="white"/>
<path d="M0 28.7725L4.54464 31.9651C5.19872 32.4253 6.02848 32.6349 6.8784 32.4861C7.72896 32.3379 8.43744 31.8586 8.89664 31.2048L17.2784 19.2733C17.7389 18.6195 17.9485 17.7888 17.8003 16.9395C17.6509 16.0893 17.1734 15.3802 16.5187 14.92L11.9734 11.728L0 28.7725ZM3.92 28.16C4.01856 27.5059 4.6288 27.0557 5.28192 27.1539C5.93664 27.2528 6.38624 27.8634 6.28832 28.5171C6.18944 29.1718 5.57984 29.6221 4.92544 29.5226C4.27104 29.4246 3.82112 28.8147 3.92 28.16Z" fill="white"/>
</svg>
