<svg width="64" height="64" viewBox="0 0 64 64" fill="none" xmlns="http://www.w3.org/2000/svg">
<path d="M44.1898 40.3134L39.0031 38.1365C38.9127 37.8371 38.5567 36.4468 39.016 34.4311C39.1029 34.3719 39.1899 34.3116 39.2769 34.2492C41.7752 32.454 43.6305 29.9035 44.5692 26.9738C45.6591 26.965 46.7014 26.5263 47.4695 25.7529C48.2375 24.9796 48.6691 23.9342 48.6704 22.8443C48.6677 21.702 48.2141 20.607 47.4083 19.7973C47.3408 12.8132 45.3291 7.68856 41.423 4.56464C38.2199 2.00269 34.6502 1.59449 33.2642 1.53784C32.8618 1.5213 32.396 1.5213 31.9868 1.53784C30.5781 1.59436 26.9497 2.00201 23.6928 4.56055C19.709 7.69011 17.6606 12.8289 17.5989 19.8348C16.8159 20.6413 16.3767 21.7203 16.3738 22.8443C16.3751 23.9302 16.8036 24.972 17.5668 25.7446C18.3299 26.5172 19.3663 26.9585 20.4521 26.9732C21.4808 30.2109 23.5489 32.9167 26.2812 34.5948C26.647 36.3393 26.4038 37.5895 26.29 38.0245L20.8366 40.3134C18.0594 41.4742 15.6881 43.4313 14.0217 45.938C12.3553 48.4446 11.4685 51.3886 11.473 54.3986V55.4136C11.473 56.8965 12.5943 59.025 17.9361 60.7437C21.8407 62 27.0175 62.6918 32.5131 62.6918C38.0087 62.6918 43.1856 62 47.0902 60.7438C52.432 59.025 53.5533 56.8966 53.5533 55.4137V54.3987C53.5578 51.3887 52.671 48.4447 51.0046 45.938C49.3383 43.4313 46.967 41.4742 44.1898 40.3134ZM40.4863 5.73603C43.7951 8.38239 45.6034 12.6977 45.8745 18.5745C44.6166 17.4739 42.7798 15.5628 42.3866 13.5078C41.8675 10.7944 40.522 9.22004 38.1523 8.5531C37.256 8.2946 36.443 7.80615 35.7939 7.13625C36.5409 6.19264 37.0512 5.08396 37.2822 3.90285C38.4376 4.34676 39.5181 4.96498 40.4863 5.73603ZM24.6194 5.74011C27.5319 3.45215 30.784 3.08728 32.047 3.03663C32.4179 3.02179 32.8394 3.02179 33.2029 3.03663C34.0938 3.07856 34.9779 3.21362 35.8407 3.43961C35.612 4.81455 34.9188 6.06952 33.8768 6.99523C32.8347 7.92095 31.5068 8.46145 30.1145 8.52661C27.7044 8.62934 25.8274 9.51411 24.6869 11.0855C23.9699 12.0732 23.3364 13.2003 22.7237 14.2901C21.6035 16.2829 20.5343 18.1832 19.1148 19.0386C19.3139 12.9267 21.1627 8.45568 24.6194 5.74011ZM21.7784 26.178L21.7953 26.1823C21.6619 25.7639 21.563 25.3352 21.4997 24.9006L21.3288 23.7152C21.3155 23.6171 21.2828 23.5227 21.2328 23.4373C21.1827 23.3519 21.1163 23.2772 21.0373 23.2176C20.9582 23.158 20.8682 23.1147 20.7723 23.09C20.6764 23.0654 20.5767 23.06 20.4787 23.0741C20.3807 23.0882 20.2865 23.1216 20.2015 23.1723C20.1165 23.223 20.0424 23.2901 19.9834 23.3695C19.9244 23.449 19.8817 23.5394 19.8578 23.6355C19.834 23.7315 19.8293 23.8313 19.8442 23.9292L20.0169 25.1265C20.034 25.2327 20.0518 25.3354 20.0701 25.4356C19.457 25.3326 18.9001 25.0159 18.4981 24.5416C18.0961 24.0673 17.875 23.466 17.8739 22.8443C17.8738 22.4708 17.9482 22.1011 18.0926 21.7567C18.237 21.4123 18.4486 21.1001 18.715 20.8384C21.152 20.1459 22.6154 17.5442 24.0313 15.0252C24.623 13.9725 25.2349 12.884 25.9008 11.9666C26.5019 11.1386 27.732 10.1295 30.1786 10.0253C31.8625 9.95149 33.473 9.3152 34.7526 8.21814C35.5798 9.06006 36.6112 9.67298 37.7461 9.99701C39.5549 10.5061 40.5022 11.6404 40.9133 13.7896C41.6368 17.5706 46.0485 20.6489 46.2359 20.7781L46.2383 20.7795C46.2635 20.7966 46.2897 20.8122 46.3168 20.8262C46.587 21.0882 46.8018 21.4019 46.9484 21.7486C47.0951 22.0953 47.1706 22.4679 47.1705 22.8443C47.1695 23.4661 46.9483 24.0675 46.5462 24.5418C46.1441 25.0161 45.5871 25.3328 44.9739 25.4357C44.9929 25.3318 45.0115 25.2255 45.0293 25.1146L45.2002 23.9292C45.2151 23.8313 45.2104 23.7315 45.1866 23.6355C45.1627 23.5394 45.12 23.449 45.061 23.3695C45.002 23.2901 44.9279 23.223 44.8429 23.1723C44.7579 23.1216 44.6637 23.0882 44.5657 23.0741C44.4678 23.06 44.368 23.0654 44.2721 23.09C44.1762 23.1147 44.0862 23.158 44.0072 23.2176C43.9281 23.2772 43.8617 23.3519 43.8116 23.4373C43.7616 23.5227 43.729 23.6171 43.7156 23.7152L43.5465 24.8887C43.5122 25.1023 43.4756 25.2995 43.4366 25.4804C43.4262 25.5083 43.4174 25.5367 43.4103 25.5656C42.6929 28.5748 40.9153 31.2247 38.4032 33.03C36.1641 34.6347 33.7044 35.2419 31.0925 34.8357C29.9259 34.6619 28.7994 34.2826 27.7653 33.7152C27.7503 33.706 27.7349 33.6972 27.7193 33.689C24.8724 32.1974 22.7333 29.4818 21.7784 26.178ZM28.9295 39.9669C28.1547 39.5998 27.6922 39.1407 27.6922 38.7386V38.5771C27.8094 38.1923 28.0841 37.0758 27.9308 35.4707C28.8474 35.8667 29.8095 36.1477 30.7951 36.3073C31.395 36.4042 32.0017 36.453 32.6093 36.4533C34.2448 36.4539 35.86 36.0912 37.3383 35.3915C37.1681 37.0393 37.45 38.186 37.5692 38.5771V38.7386C37.5692 39.1406 37.1067 39.5998 36.3319 39.9669C35.37 40.4228 34.021 40.6842 32.6307 40.6842C31.2405 40.6842 29.8914 40.4228 28.9295 39.9669ZM39.1711 47.5404C39.0463 47.6728 38.8966 47.7792 38.7306 47.8536C38.5646 47.928 38.3855 47.9689 38.2037 47.974C37.9822 47.9765 37.7635 47.9235 37.5677 47.8199C37.3719 47.7162 37.2051 47.5651 37.0827 47.3805L33.8743 42.5578C33.8485 42.519 33.8332 42.4741 33.8298 42.4276C33.8264 42.3811 33.8351 42.3345 33.8549 42.2924C33.8748 42.2502 33.9052 42.2138 33.9432 42.1868C33.9812 42.1598 34.0255 42.143 34.0719 42.1381C36.3366 41.8904 38.1448 41.1069 39.0588 40.0241C39.1278 39.9424 39.2215 39.8853 39.3258 39.8615C39.4301 39.8377 39.5393 39.8484 39.6369 39.8921L40.7491 40.3879C40.8525 40.4333 40.9371 40.5131 40.9883 40.6138C42.3609 43.3686 40.7991 45.8757 39.1711 47.5404ZM24.3886 40.3879L25.5007 39.8921C25.5984 39.8484 25.7075 39.8377 25.8118 39.8615C25.9161 39.8853 26.0098 39.9424 26.0788 40.0241C26.9929 41.1069 28.801 41.8903 31.0658 42.1381C31.1122 42.143 31.1565 42.1598 31.1945 42.1868C31.2325 42.2138 31.2629 42.2502 31.2827 42.2924C31.3026 42.3345 31.3112 42.3811 31.3078 42.4276C31.3045 42.4741 31.2891 42.519 31.2634 42.5578L28.055 47.3805C27.9325 47.5651 27.7658 47.7162 27.57 47.8199C27.3742 47.9235 27.1555 47.9765 26.934 47.974C26.7521 47.9689 26.5731 47.928 26.4071 47.8536C26.241 47.7792 26.0914 47.6728 25.9666 47.5404C24.3385 45.8757 22.7767 43.3686 24.1493 40.6138C24.2005 40.5131 24.2851 40.4333 24.3886 40.3879Z" fill="white"/>
<path d="M29.1177 24.0377C29.1215 23.8162 29.0808 23.5963 28.9979 23.3909C28.915 23.1855 28.7917 22.9989 28.6352 22.8422C28.5438 22.7574 28.43 22.7006 28.3072 22.6786C28.1844 22.6566 28.058 22.6702 27.9427 22.718C27.4966 22.8941 27.0887 23.1548 26.7416 23.4858C26.628 23.5917 26.5565 23.7352 26.5403 23.8897C26.5362 23.9383 26.5339 23.9876 26.5339 24.0377C26.5339 24.8861 27.1123 25.5739 27.8258 25.5739C28.5393 25.5739 29.1177 24.8861 29.1177 24.0377Z" fill="white"/>
<path d="M27.4868 17.7441C27.5308 17.7249 31.9594 15.8519 36.8578 17.7537C37.0123 17.8137 37.1843 17.8098 37.336 17.743C37.4877 17.6761 37.6066 17.5517 37.6666 17.3972C37.7266 17.2427 37.7227 17.0707 37.6559 16.919C37.589 16.7673 37.4647 16.6484 37.3101 16.5884C31.9161 14.4942 27.1854 16.5115 26.9869 16.5984C26.8356 16.6651 26.717 16.789 26.6569 16.9431C26.5968 17.0971 26.6002 17.2686 26.6663 17.4202C26.7324 17.5717 26.8559 17.6909 27.0096 17.7516C27.1634 17.8123 27.335 17.8096 27.4868 17.7441Z" fill="white"/>
<path d="M29.8523 14.5269C31.3756 14.2911 32.9281 14.3201 34.4416 14.6124C34.6037 14.6429 34.7712 14.6081 34.9078 14.5156C35.0443 14.423 35.1387 14.2803 35.1705 14.1185C35.2022 13.9567 35.1688 13.7889 35.0773 13.6516C34.9859 13.5144 34.8439 13.4188 34.6824 13.3858C33.0281 13.0658 31.3311 13.0337 29.666 13.2908C29.5021 13.3155 29.3547 13.4043 29.2562 13.5377C29.1578 13.671 29.1164 13.8381 29.1411 14.002C29.1658 14.1659 29.2546 14.3133 29.3879 14.4117C29.5213 14.5101 29.6883 14.5516 29.8523 14.5269Z" fill="white"/>
<path d="M31.4916 24.4062V24.8263C31.4916 25.0252 31.5706 25.2159 31.7112 25.3566C31.8519 25.4972 32.0426 25.5763 32.2416 25.5763C32.4405 25.5763 32.6312 25.4972 32.7719 25.3566C32.9125 25.2159 32.9916 25.0252 32.9916 24.8263V24.4062C32.9916 24.2073 32.9125 24.0166 32.7719 23.8759C32.6312 23.7353 32.4405 23.6562 32.2416 23.6562C32.0426 23.6562 31.8519 23.7353 31.7112 23.8759C31.5706 24.0166 31.4916 24.2073 31.4916 24.4062Z" fill="white"/>
<path d="M28.9102 20.9464C28.9101 20.7807 28.8442 20.6219 28.727 20.5047C28.6098 20.3876 28.4509 20.3218 28.2852 20.3218H28.2849C27.1766 20.3249 26.1069 20.7294 25.2739 21.4604C25.2116 21.5139 25.1604 21.5791 25.1233 21.6523C25.0862 21.7255 25.0639 21.8053 25.0576 21.8871C25.0513 21.9689 25.0612 22.0512 25.0868 22.1292C25.1123 22.2072 25.1529 22.2794 25.2063 22.3417C25.2598 22.4041 25.325 22.4552 25.3982 22.4923C25.4714 22.5294 25.5512 22.5518 25.633 22.558C25.7148 22.5643 25.7971 22.5544 25.8751 22.5289C25.9531 22.5034 26.0253 22.4627 26.0876 22.4093C26.6929 21.8701 27.4751 21.5721 28.2856 21.5718C28.4514 21.5717 28.6103 21.5057 28.7275 21.3885C28.8446 21.2712 28.9104 21.1122 28.9102 20.9464Z" fill="white"/>
<path d="M37.7415 23.4858C37.3944 23.1548 36.9865 22.8941 36.5403 22.718C36.4251 22.6702 36.2986 22.6565 36.1759 22.6786C36.0531 22.7006 35.9393 22.7573 35.8478 22.8421C35.6914 22.9989 35.5681 23.1855 35.4852 23.3909C35.4023 23.5963 35.3616 23.8162 35.3654 24.0376C35.3654 24.8861 35.9438 25.5739 36.6573 25.5739C37.3708 25.5739 37.9492 24.8861 37.9492 24.0376C37.9492 23.9876 37.9469 23.9383 37.9427 23.8896C37.9266 23.7352 37.8551 23.5917 37.7415 23.4858Z" fill="white"/>
<path d="M36.1978 20.0679C36.1158 20.0679 36.0345 20.0841 35.9587 20.1154C35.8828 20.1468 35.8139 20.1928 35.7559 20.2509C35.6386 20.368 35.5727 20.527 35.5727 20.6928C35.5726 20.8585 35.6384 21.0175 35.7556 21.1347C35.8728 21.252 36.0317 21.3179 36.1975 21.3179C37.008 21.3182 37.7903 21.6162 38.3955 22.1554C38.5213 22.2633 38.6848 22.3168 38.8501 22.3042C39.0154 22.2915 39.1689 22.2137 39.2768 22.0879C39.3847 21.962 39.4382 21.7985 39.4255 21.6332C39.4129 21.468 39.335 21.3145 39.2092 21.2066C38.3762 20.4755 37.3065 20.071 36.1982 20.068L36.1978 20.0679Z" fill="white"/>
<path d="M28.427 29.8175C28.6115 29.4738 28.8673 29.1735 29.1772 28.9366C29.594 30.429 30.6671 31.2811 32.1513 31.2811H32.1616C33.6802 31.277 34.7705 30.3871 35.1682 28.8382C35.5406 29.0861 35.8457 29.4226 36.0561 29.8175C36.1367 29.9614 36.2709 30.0676 36.4295 30.1129C36.5881 30.1583 36.7581 30.1392 36.9026 30.0597C37.0471 29.9802 37.1544 29.8468 37.201 29.6886C37.2475 29.5304 37.2297 29.3602 37.1513 29.2151C36.0904 27.286 34.2315 27.2131 34.1531 27.211C34.127 27.2103 34.007 27.2107 33.9717 27.2107H30.3474C30.3435 27.2107 30.3397 27.2114 30.3358 27.2114C30.3339 27.2114 30.332 27.2109 30.3302 27.211C30.3218 27.2112 30.2924 27.2124 30.2471 27.2164C30.2232 27.2183 30.1994 27.2204 30.1758 27.2237C29.5769 27.3037 29.0061 27.5263 28.5112 27.8729C28.0163 28.2194 27.6118 28.6797 27.3318 29.215C27.2915 29.287 27.2658 29.3662 27.2562 29.4481C27.2467 29.5301 27.2535 29.6131 27.2762 29.6924C27.2988 29.7717 27.337 29.8457 27.3884 29.9102C27.4399 29.9747 27.5036 30.0283 27.5758 30.0681C27.6481 30.1078 27.7275 30.1329 27.8095 30.1418C27.8915 30.1507 27.9745 30.1433 28.0536 30.12C28.1327 30.0967 28.2065 30.058 28.2705 30.006C28.3346 29.9541 28.3878 29.8901 28.427 29.8175ZM32.1583 30.0311C31.8021 30.0306 30.7129 30.0349 30.3454 28.4621C30.3547 28.4613 30.3595 28.461 30.364 28.4608L33.9747 28.4656C33.73 29.5018 33.1187 30.0285 32.1583 30.0311Z" fill="white"/>
</svg>
